# xmcd
#
# Track frame offsets:
#	150
#	19737
#	41706
#	58550
#	80972
#	97810
#	119008
#	138716
#	158572
#	179596
#	198631
#	216913
#	231003
#	256248
#	271864
#	289212
#	304795
#	319316
#
# Disc length: 4597
#
# Revision: 3
# Processed by: cddbd v1.5.1PL0 Copyright (c) Steve Scherf et al.
# Submitted via: CDmax 1.8
# Normalized: r1:DSETVAR1,TDELIM( - ),TSWAP
#
DISCID=1011f312
DTITLE=Various Artist - What's Hot Vol 8
DYEAR=2001
DGENRE=Blues
TTITLE0=Brandy - What About Us
TTITLE1=Michael McDonald - House Full of Love
TTITLE2=B2K - Uh Uh
TTITLE3=Ginuwine - Tribute to a Woman
TTITLE4=Lil' Corey - Hush Little Lady
TTITLE5=Too Short - Candy Paint
TTITLE6=Blu Cantrell - Till I'm Gone
TTITLE7=Craig David - 7 Days
TTITLE8=Westlife - Queen of My Heart
TTITLE9=Warren G - Lookin' At You
TTITLE10=Tim McGraw - The Cowboy In Me
TTITLE11=Barbara Ann - Head
TTITLE12=Nick Cave - Fifteen Feet of Pure Snow
TTITLE13=Lee Ann Womack - Does My Ring Burn Your Finger
TTITLE14=Trace Adkins - Help Me Understand
TTITLE15=Supesuckers - Must've Been High
TTITLE16=Jeff  Steele - I Can Give You Love Like That
TTITLE17=Daniel Ash - Rattlesnake
EXTD=
EXTT0=
EXTT1=
EXTT2=
EXTT3=
EXTT4=
EXTT5=
EXTT6=
EXTT7=
EXTT8=
EXTT9=
EXTT10=
EXTT11=
EXTT12=
EXTT13=
EXTT14=
EXTT15=
EXTT16=
EXTT17=
PLAYORDER=
